<svg xmlns="http://www.w3.org/2000/svg" width="1200" height="360" viewBox="0 0 1200 360" role="img" aria-labelledby="title desc">
  <title id="title">MMB4L for Luckfox Lyra PicoCalc</title>
  <desc id="desc">A polished banner for the MMBasic on Luckfox Lyra PicoCalc project.</desc>
  <defs>
    <linearGradient id="bg" x1="0" y1="0" x2="1" y2="1">
      <stop offset="0" stop-color="#111827"/>
      <stop offset="0.48" stop-color="#12343b"/>
      <stop offset="1" stop-color="#0f766e"/>
    </linearGradient>
    <linearGradient id="screen" x1="0" y1="0" x2="1" y2="1">
      <stop offset="0" stop-color="#102a43"/>
      <stop offset="1" stop-color="#0ea5a4"/>
    </linearGradient>
    <filter id="softShadow" x="-20%" y="-20%" width="140%" height="140%">
      <feDropShadow dx="0" dy="18" stdDeviation="18" flood-color="#020617" flood-opacity="0.35"/>
    </filter>
  </defs>

  <rect width="1200" height="360" rx="32" fill="url(#bg)"/>
  <path d="M0 268 C180 232 268 318 440 278 C622 236 726 164 924 197 C1050 218 1126 184 1200 138 L1200 360 L0 360 Z" fill="#14b8a6" opacity="0.18"/>
  <path d="M0 103 C138 132 264 67 412 101 C566 136 685 197 846 148 C1000 101 1098 84 1200 116 L1200 0 L0 0 Z" fill="#38bdf8" opacity="0.10"/>

  <g filter="url(#softShadow)" transform="translate(76 54)">
    <rect x="0" y="0" width="310" height="252" rx="28" fill="#d7e2df"/>
    <rect x="25" y="25" width="260" height="260" rx="20" fill="#1f2937"/>
    <rect x="47" y="47" width="216" height="216" rx="10" fill="url(#screen)"/>
    <g fill="#ccfbf1" font-family="Consolas, 'SFMono-Regular', monospace" font-size="22">
      <text x="65" y="94">10 PRINT "READY"</text>
      <text x="65" y="130">20 PIXEL X,Y,C</text>
      <text x="65" y="166">30 WEB SCAN</text>
      <text x="65" y="202">40 GOTO 10</text>
    </g>
    <g transform="translate(25 292)">
      <rect width="260" height="46" rx="10" fill="#cbd5d1"/>
      <g fill="#334155">
        <rect x="18" y="12" width="28" height="22" rx="4"/>
        <rect x="56" y="12" width="28" height="22" rx="4"/>
        <rect x="94" y="12" width="28" height="22" rx="4"/>
        <rect x="132" y="12" width="28" height="22" rx="4"/>
        <rect x="170" y="12" width="28" height="22" rx="4"/>
        <rect x="208" y="12" width="34" height="22" rx="4"/>
      </g>
    </g>
  </g>

  <g transform="translate(442 82)">
    <text x="0" y="42" fill="#f8fafc" font-family="Arial, Helvetica, sans-serif" font-size="50" font-weight="700">MMB4L for Luckfox Lyra</text>
    <text x="0" y="98" fill="#99f6e4" font-family="Arial, Helvetica, sans-serif" font-size="36" font-weight="700">PicoCalc-ready MMBasic on Linux</text>
    <text x="0" y="150" fill="#dbeafe" font-family="Arial, Helvetica, sans-serif" font-size="24">Repeatable ARMv7 builds, PicoCalc graphics, CSUB support,</text>
    <text x="0" y="184" fill="#dbeafe" font-family="Arial, Helvetica, sans-serif" font-size="24">and WebMite-style networking work for the Luckfox module.</text>
    <g transform="translate(0 222)" font-family="Arial, Helvetica, sans-serif" font-size="18" font-weight="700">
      <rect x="0" y="0" width="128" height="34" rx="17" fill="#ccfbf1"/>
      <text x="21" y="23" fill="#115e59">ARMv7 Linux</text>
      <rect x="146" y="0" width="112" height="34" rx="17" fill="#dbeafe"/>
      <text x="169" y="23" fill="#1e3a8a">PicoCalc</text>
      <rect x="276" y="0" width="104" height="34" rx="17" fill="#fef3c7"/>
      <text x="299" y="23" fill="#92400e">MMB4L</text>
      <rect x="398" y="0" width="124" height="34" rx="17" fill="#dcfce7"/>
      <text x="423" y="23" fill="#166534">fbdev</text>
    </g>
  </g>
</svg>
